# xmcd
#
# Track frame offsets:
#	150
#	17017
#	46140
#	70457
#	77185
#	100375
#	119596
#	141104
#	162877
#	188087
#	212083
#
# Disc length: 3131 seconds
#
# Revision: 0
# Processed by: cddbd v1.4b41PL1 Copyright (c) Steve Scherf et al.
# Submitted via: audiograbber 1.80
#
DISCID=990c390b
DTITLE=Marc Cohn - Live at the Lone Star cafe
DYEAR=1900
DGENRE=
TTITLE0=Strangers in a car
TTITLE1=Silver thunderbird
TTITLE2=Walking in Memphis
TTITLE3=Conversation
TTITLE4=Ghost train
TTITLE5=29 Ways
TTITLE6=Perfect love
TTITLE7=Rest for the weary
TTITLE8=Dig down deep
TTITLE9=True companion
TTITLE10=Saving the best for last
EXTD=
EXTT0=
EXTT1=
EXTT2=
EXTT3=
EXTT4=
EXTT5=
EXTT6=
EXTT7=
EXTT8=
EXTT9=
EXTT10=
PLAYORDER=
